<svg width="53" height="23" viewBox="0 0 53 23" fill="none" xmlns="http://www.w3.org/2000/svg">
<path fill-rule="evenodd" clip-rule="evenodd" d="M7.2352 4.41005C8.21641 4.49282 9.19762 3.91343 9.81088 3.17884C10.4139 2.42356 10.8125 1.40963 10.7103 0.375C9.84154 0.416385 8.76834 0.954392 8.15509 1.70967C7.59293 2.36149 7.11255 3.41681 7.2352 4.41005ZM18.9075 17.736V1.6062H24.8868C27.9735 1.6062 30.1301 3.75823 30.1301 6.90349C30.1301 10.0488 27.9326 12.2215 24.805 12.2215H21.381V17.736H18.9075ZM10.7 4.60661C9.8356 4.55625 9.04685 4.86977 8.40975 5.123C7.99976 5.28597 7.65258 5.42397 7.38844 5.42397C7.09203 5.42397 6.73052 5.27859 6.32461 5.11536C5.79275 4.90148 5.18468 4.65695 4.54702 4.66869C3.08543 4.68938 1.72604 5.52743 0.979913 6.8621C-0.553229 9.53144 0.581296 13.4837 2.06333 15.6564C2.78902 16.7324 3.6578 17.9119 4.80254 17.8705C5.30616 17.8513 5.66844 17.6957 6.04336 17.5346C6.47499 17.3492 6.92339 17.1566 7.62352 17.1566C8.29939 17.1566 8.72817 17.3442 9.13978 17.5243C9.53115 17.6955 9.907 17.8599 10.4649 17.8498C11.6506 17.8292 12.3967 16.7738 13.1224 15.6978C13.9055 14.543 14.2497 13.4159 14.3019 13.2448C14.3049 13.2351 14.3069 13.2284 14.308 13.2251C14.3068 13.2238 14.2971 13.2193 14.28 13.2114C14.0182 13.0901 12.0173 12.1628 11.9981 9.67629C11.9788 7.58921 13.5852 6.53177 13.8381 6.36531C13.8534 6.3552 13.8638 6.34834 13.8685 6.34479C12.8464 4.81354 11.252 4.648 10.7 4.60661ZM34.6479 17.8602C36.2015 17.8602 37.6426 17.0635 38.2968 15.8013H38.3479V17.736H40.6374V9.70733C40.6374 7.37942 38.7976 5.87921 35.9664 5.87921C33.3396 5.87921 31.3976 7.40012 31.3261 9.49006H33.5543C33.7382 8.49682 34.6479 7.84501 35.8949 7.84501C37.4076 7.84501 38.2559 8.5589 38.2559 9.87287V10.7627L35.1692 10.9489C32.2971 11.1248 30.7435 12.3146 30.7435 14.3838C30.7435 16.4738 32.3482 17.8602 34.6479 17.8602ZM35.3121 15.9461C33.9936 15.9461 33.1555 15.3047 33.1555 14.3218C33.1555 13.3078 33.9629 12.7181 35.5063 12.625L38.2557 12.4491V13.3596C38.2557 14.8701 36.9883 15.9461 35.3121 15.9461ZM48.2314 18.3672C47.24 21.1917 46.1055 22.1229 43.6933 22.1229C43.5094 22.1229 42.8961 22.1022 42.753 22.0608V20.126C42.9063 20.1467 43.2845 20.1674 43.4787 20.1674C44.5723 20.1674 45.1856 19.7018 45.5638 18.4913L45.7886 17.7774L41.5981 6.03442H44.1839L47.0969 15.5633H47.148L50.061 6.03442H52.5753L48.2314 18.3672ZM21.3808 3.71684H24.2324C26.3788 3.71684 27.6053 4.87563 27.6053 6.91384C27.6053 8.95206 26.3788 10.1212 24.2222 10.1212H21.3808V3.71684Z" fill="white"/>
</svg>
