<svg width="71" height="17" viewBox="0 0 71 17" fill="none" xmlns="http://www.w3.org/2000/svg">
<path d="M50.8462 16.5448C46.2613 16.5448 43.5493 13.4524 43.6761 9.42351C43.8322 4.27277 48.3781 0 53.802 0C56.1237 0 57.987 0.604822 59.2259 1.22915L58.504 5.04343C56.9529 4.20448 55.6262 3.69721 53.4703 3.69721C50.095 3.69721 47.8611 6.21405 47.7831 8.93575C47.7148 11.1014 49.022 12.8964 51.5388 12.8964C52.1046 12.8964 52.7679 12.8086 53.2167 12.7012L54.202 7.49198H58.0455L56.5529 15.3547C54.9238 16.1058 52.7777 16.5448 50.8462 16.5448Z" fill="#1899D6"/>
<path d="M70.2882 7.49218L62.6304 2.92676L60.6111 13.6087L70.2882 7.49218Z" fill="#1899D6"/>
<path d="M13.3764 5.79492C15.3665 5.79492 16.8103 6.96554 16.8103 8.7605C16.8103 11.1017 14.7422 12.7211 12.6838 12.7211C10.6938 12.7211 9.25 11.5602 9.25 9.75553C9.25 7.43379 11.3083 5.79492 13.3764 5.79492ZM12.7228 10.8774C13.6106 10.8774 14.5666 10.1165 14.5666 8.90682C14.5666 8.12641 14.0496 7.64841 13.3569 7.64841C12.479 7.64841 11.5034 8.44833 11.5034 9.65797C11.4937 10.4286 12.0107 10.8774 12.7228 10.8774Z" fill="#2F4049"/>
<path d="M19.0931 3.375H22.6049C23.1415 3.375 23.6097 3.4628 24.0097 3.6579C24.8681 4.06762 25.3461 4.91632 25.3461 5.98939C25.3461 7.53071 24.4682 8.84766 23.239 9.42321C22.8 9.62807 22.3123 9.73538 21.8245 9.73538H20.1174L19.5613 12.5741H17.3079L19.0931 3.375ZM21.5806 7.80385C21.8635 7.80385 22.1367 7.75508 22.3415 7.60875C22.761 7.32585 23.0342 6.79907 23.0342 6.19425C23.0342 5.65771 22.722 5.30653 22.1074 5.30653H20.9758L20.4881 7.80385H21.5806Z" fill="#2F4049"/>
<path d="M29.5311 8.43858H29.6189C29.6286 8.35078 29.6482 8.23372 29.6482 8.1947C29.6482 7.75572 29.336 7.58988 28.8092 7.58988C27.9703 7.58988 26.8972 8.1947 26.8972 8.1947L26.4192 6.52656C26.4192 6.52656 27.7849 5.79492 29.2482 5.79492C30.37 5.79492 31.8723 6.23391 31.8723 7.90204C31.8723 8.09715 31.8431 8.31176 31.804 8.54589L31.0334 12.5748H29.0043L29.0824 12.1748C29.1214 11.9602 29.1994 11.7651 29.1994 11.7651H29.1702C29.1702 11.7651 28.4483 12.7309 27.2191 12.7309C26.2338 12.7309 25.2778 12.1358 25.2778 11.0237C25.2778 9.00438 27.8337 8.43858 29.5311 8.43858ZM28.0483 11.0237C28.6239 11.0237 29.2579 10.3896 29.3555 9.85309L29.3848 9.70676H29.1799C28.7019 9.70676 27.5118 9.81406 27.5118 10.5945C27.5118 10.8384 27.6776 11.0237 28.0483 11.0237Z" fill="#2F4049"/>
<path d="M33.0039 13.4041C33.3941 13.4041 33.8526 13.2968 34.2038 12.731L34.3989 12.4188L32.8478 5.92188H35.1598L35.6963 9.19962C35.7646 9.56056 35.7646 10.1751 35.7646 10.1751H35.7939C35.7939 10.1751 36.028 9.59958 36.1938 9.23864L37.6766 5.92188H40.174L36.0378 13.248C35.2183 14.7016 34.0672 15.2381 33.1405 15.2381C32.165 15.2381 31.4041 14.7211 31.4041 14.7211L32.3698 13.1797C32.3503 13.1993 32.6235 13.4041 33.0039 13.4041Z" fill="#2F4049"/>
<path d="M4.21635 12.77C1.52392 12.77 -0.0661725 10.9652 0.00211372 8.62401C0.0996655 5.61941 2.76283 3.13184 5.95277 3.13184C7.3185 3.13184 8.40132 3.47327 9.12321 3.84396L8.70374 6.06815C7.7965 5.58039 7.01609 5.27798 5.75767 5.27798C3.77737 5.27798 2.46042 6.75101 2.41164 8.33135C2.37262 9.58977 3.13353 10.6433 4.61631 10.6433C4.94799 10.6433 5.3382 10.5946 5.60159 10.5263L6.17714 7.4924H8.43059L7.56238 12.0773C6.60637 12.5163 5.34795 12.77 4.21635 12.77Z" fill="#2F4049"/>
</svg>
