<svg width="53" height="22" viewBox="0 0 53 22" fill="none" xmlns="http://www.w3.org/2000/svg">
<path fill-rule="evenodd" clip-rule="evenodd" d="M24.3192 17.1839V10.8777H27.574C28.9077 10.8777 30.0334 10.4308 30.9511 9.54938L31.1714 9.32593C32.8477 7.5011 32.7376 4.65832 30.9511 2.97004C30.0579 2.07624 28.8343 1.5921 27.574 1.61693H22.3492V17.1839H24.3192ZM24.3194 8.9659V3.52862H27.6237C28.3335 3.52862 29.0066 3.80173 29.5083 4.29828C30.573 5.34105 30.5975 7.07899 29.5695 8.159C29.0678 8.69279 28.358 8.99072 27.6237 8.9659H24.3194Z" fill="white"/>
<path fill-rule="evenodd" clip-rule="evenodd" d="M40.3607 7.36455C39.5164 6.58248 38.3662 6.18524 36.9101 6.18524C35.038 6.18524 33.6309 6.88041 32.7009 8.25835L34.4384 9.36319C35.0747 8.41973 35.9435 7.948 37.0447 7.948C37.7422 7.948 38.4151 8.2087 38.9413 8.68042C39.4552 9.12732 39.7489 9.77284 39.7489 10.4556V10.9149C38.9902 10.4928 38.0358 10.2694 36.8612 10.2694C35.4907 10.2694 34.3895 10.5922 33.5697 11.2501C32.7499 11.908 32.3338 12.777 32.3338 13.8818C32.3094 14.8874 32.7376 15.8432 33.4963 16.4887C34.2671 17.1839 35.246 17.5315 36.3962 17.5315C37.7544 17.5315 38.8312 16.9232 39.651 15.7067H39.7366V17.1839H41.621V10.617C41.621 9.23905 41.2049 8.14663 40.3607 7.36455ZM35.0139 15.2225C34.61 14.9246 34.3653 14.4404 34.3653 13.9191C34.3653 13.3356 34.6345 12.8515 35.1607 12.4666C35.6992 12.0818 36.3723 11.8832 37.1678 11.8832C38.2692 11.8708 39.1258 12.1191 39.7377 12.6156C39.7377 13.4597 39.4073 14.1922 38.7587 14.8129C38.1713 15.4087 37.3758 15.7439 36.5436 15.7439C35.9929 15.7563 35.4544 15.5701 35.0139 15.2225Z" fill="white"/>
<path d="M45.8547 21.8639L52.4376 6.53283H50.2963L47.2496 14.1798H47.2129L44.0927 6.53283H41.9514L46.2707 16.5012L43.8235 21.8639H45.8547Z" fill="white"/>
<path d="M17.5181 9.51213C17.5181 8.90385 17.4691 8.29557 17.3712 7.69971H9.06298V11.1383H13.8228C13.627 12.2432 12.9907 13.2363 12.0608 13.857V16.0915H14.8995C16.5636 14.5397 17.5181 12.2432 17.5181 9.51213Z" fill="#4285F4"/>
<path d="M9.06333 18.2515C11.4371 18.2515 13.4435 17.457 14.8995 16.0915L12.0608 13.857C11.2655 14.4032 10.2502 14.7135 9.06333 14.7135C6.76296 14.7135 4.81743 13.137 4.11998 11.0266H1.19558V13.3356C2.68837 16.3522 5.73513 18.2515 9.06333 18.2515Z" fill="#34A853"/>
<path d="M4.11998 11.0266C3.75284 9.9218 3.75317 8.71769 4.12031 7.60044V5.30387H1.19544C-0.0650662 7.82389 -0.0650662 10.8032 1.19544 13.3232L4.11998 11.0266Z" fill="#FBBC04"/>
<path d="M9.06333 3.91349C10.3236 3.88866 11.535 4.3728 12.4405 5.25419L14.9611 2.69693C13.3582 1.18244 11.2536 0.350713 9.06333 0.37554C5.73513 0.37554 2.68824 2.28731 1.19544 5.30387L4.11998 7.61282C4.81743 5.49005 6.76296 3.91349 9.06333 3.91349Z" fill="#EA4335"/>
</svg>
