<svg width="16" height="16" viewBox="0 0 16 16" fill="none" xmlns="http://www.w3.org/2000/svg">
<path d="M14 1.33334V5.33334H10" stroke="currentColor" stroke-linecap="round" stroke-linejoin="round"/>
<path d="M2 8C2.00105 6.84221 2.33707 5.70945 2.9675 4.73836C3.59794 3.76726 4.49588 2.99931 5.55301 2.52712C6.61013 2.05494 7.7813 1.8987 8.92524 2.07723C10.0692 2.25577 11.137 2.76147 12 3.53333L14 5.33333" stroke="currentColor" stroke-linecap="round" stroke-linejoin="round"/>
<path d="M2 14.6667V10.6667H6" stroke="currentColor" stroke-linecap="round" stroke-linejoin="round"/>
<path d="M14 8C13.9989 9.15779 13.6629 10.2905 13.0325 11.2616C12.4021 12.2327 11.5041 13.0007 10.447 13.4729C9.38987 13.9451 8.2187 14.1013 7.07476 13.9228C5.93082 13.7442 4.86297 13.2385 4 12.4667L2 10.6667" stroke="currentColor" stroke-linecap="round" stroke-linejoin="round"/>
</svg>
