<svg width="100" height="35" viewBox="0 0 100 35" fill="none" xmlns="http://www.w3.org/2000/svg">
<g clip-path="url(#clip0_3866_16890)">
<path d="M0 0H100V35H0V0Z" fill="#BA1B02"/>
<path d="M20.7269 15.8102L20.3249 16.0016L19.9229 15.8102L14.2952 13.0484L16.9604 12.0367L22.7368 14.8203L20.7269 15.8102ZM26.3601 13.0484L24.3447 14.0219L18.5077 11.4406L20.3194 10.7461L26.3601 13.0484Z" fill="white"/>
<path d="M20.5396 8.96328L27.924 11.7961L26.8887 12.6219L20.3249 10.0953L13.761 12.6219L12.7202 11.7961L20.1101 8.96328H20.5396ZM27.0594 12.868L28.2819 12.3977L27.3623 19.9172L27.1806 20.2508L20.6993 26.0367L20.4901 24.7078L26.261 19.5563L27.0594 12.868ZM13.4691 20.2562L13.2819 19.9172L12.3623 12.4031L13.5848 12.868L14.3942 19.5672L20.1597 24.7133L19.9559 26.0422L13.4691 20.2562Z" fill="white"/>
<path d="M24.5044 14.257L26.3656 13.1305L25.6332 19.1844L20.3634 23.893L20.6553 16.5977L22.968 15.1867L22.8138 18.7633L24.2511 17.757L24.5044 14.257Z" fill="#B4B4B4"/>
<path d="M19.9945 16.5977L20.2864 23.8875L15.0221 19.1844L14.2787 13.1305L19.9945 16.5977Z" fill="#DEDEDE"/>
<path d="M80.0716 15.1648C80.4938 15.3508 80.8315 15.6242 81.0848 15.9852C81.3382 16.3461 81.4685 16.8091 81.4758 17.3742V22.1211H79.9615V17.3852C79.9395 17.0862 79.8312 16.8492 79.6366 16.6742C79.4457 16.4956 79.2071 16.3753 78.9207 16.3133C78.6454 16.2477 78.3664 16.2331 78.0837 16.2695C77.8011 16.306 77.5588 16.3826 77.3569 16.4992V22.1211H75.8315V15.3453C75.9894 15.3234 76.1216 15.2961 76.228 15.2633C76.3895 15.2122 76.6373 15.132 76.9714 15.0227C77.2908 14.9169 77.7056 14.8549 78.2159 14.8367C78.2489 14.8294 78.282 14.8294 78.315 14.8367C78.4398 14.8294 78.5683 14.8312 78.7005 14.8422C79.1961 14.875 79.6531 14.9826 80.0716 15.1648Z" fill="white"/>
<path d="M75.5837 15.3617L73.1828 22.1211H71.5638L69.163 15.3617C69.6916 15.3617 70.1798 15.2214 70.6277 14.9406L72.0815 19.1188L72.3183 20.5461H72.4284L72.6652 19.1188L74.1189 14.9406C74.5668 15.2214 75.055 15.3617 75.5837 15.3617Z" fill="white"/>
<path d="M50.6608 18.1617C51.0205 18.3039 51.316 18.5208 51.5473 18.8125C51.7786 19.1078 51.8997 19.5089 51.9108 20.0156C51.8997 20.5734 51.7511 21.031 51.4647 21.3883C51.171 21.7383 50.7984 21.9844 50.3469 22.1266C49.8917 22.2724 49.4126 22.3125 48.9097 22.2469C48.4067 22.1776 47.9405 22.0008 47.511 21.7164C47.0888 21.4393 46.7566 21.051 46.5143 20.5516L47.6597 19.8187C47.8506 20.1396 48.0928 20.3839 48.3865 20.5516C48.6839 20.7302 48.9812 20.8286 49.2786 20.8469C49.5796 20.8688 49.8384 20.8122 50.055 20.6773C50.2643 20.5497 50.3781 20.3383 50.3964 20.043C50.3891 19.8643 50.3285 19.7276 50.2147 19.6328C50.0972 19.5271 49.9522 19.4432 49.7797 19.3812C49.6035 19.3302 49.4291 19.2865 49.2566 19.25C48.9996 19.2026 48.7224 19.1352 48.4251 19.0477C48.1387 18.9602 47.8616 18.8362 47.5936 18.6758C47.3293 18.519 47.1127 18.3057 46.9438 18.0359C46.8006 17.8062 46.7199 17.5201 46.7015 17.1773C46.7015 17.1701 46.7015 17.1609 46.7015 17.15C46.6978 17.1135 46.696 17.0734 46.696 17.0297C46.7033 16.501 46.8447 16.0763 47.12 15.7555C47.3917 15.431 47.7312 15.1958 48.1387 15.05C48.5499 14.9078 48.9666 14.8385 49.3887 14.8422C49.7815 14.8422 50.1817 14.9242 50.5892 15.0883C51.0003 15.2596 51.3876 15.5185 51.7511 15.8648L50.826 16.8656C50.624 16.6651 50.3799 16.5156 50.0936 16.4172C49.8109 16.3078 49.5301 16.2513 49.2511 16.2477C48.9757 16.2477 48.7408 16.3005 48.5462 16.4063C48.3553 16.5156 48.2434 16.6833 48.2103 16.9094C48.1993 17.1172 48.2599 17.2849 48.392 17.4125C48.5315 17.5437 48.7041 17.6404 48.9097 17.7023C49.1116 17.7716 49.3153 17.8208 49.5209 17.85C49.9174 17.9047 50.2973 18.0086 50.6608 18.1617Z" fill="white"/>
<path d="M53.9042 12.5672C54.0841 12.7458 54.1759 12.9792 54.1795 13.2672C54.1759 13.5406 54.0841 13.7667 53.9042 13.9453C53.728 14.1312 53.493 14.226 53.1993 14.2297C52.9277 14.226 52.7019 14.1312 52.522 13.9453C52.3422 13.7667 52.2504 13.5406 52.2467 13.2672C52.2504 12.9792 52.3422 12.7458 52.522 12.5672C52.7019 12.3922 52.9277 12.2992 53.1993 12.2883C53.493 12.2992 53.728 12.3922 53.9042 12.5672Z" fill="white"/>
<path d="M57.8248 20.7484C57.8248 20.7266 57.8248 12.3047 57.8248 12.3047H59.3612V17.8336L60.077 17.0461L60.088 17.0297L61.9548 14.9461H63.8766L60.859 18.2547L63.8601 22.1211H62.0594L59.7852 19.1789L59.3612 19.6109V22.1211L57.8854 22.1758C57.8469 22.1758 57.8414 22.1758 57.8028 22.1758C57.7588 22.1758 57.7092 22.1703 57.7092 22.1703L57.6266 22.1648C56.6464 22.0956 55.9526 21.8768 55.5451 21.5086C55.0679 21.0747 54.8274 20.475 54.8237 19.7094V12.3047H56.3546V19.7094C56.3509 20.0083 56.4519 20.2544 56.6574 20.4477C56.8226 20.6062 57.2521 20.7102 57.8248 20.7484Z" fill="white"/>
<path d="M54.0033 22.1211H52.4669V14.9242H54.0033V22.1211Z" fill="white"/>
<path d="M43.8877 14.4922H42.3789L43.3701 12.8734H45.2644L43.8877 14.4922Z" fill="white"/>
<path fill-rule="evenodd" clip-rule="evenodd" d="M87.6322 17.2102V21.8148C87.1953 21.9789 86.7217 22.1065 86.2115 22.1977C85.7048 22.2852 85.2001 22.318 84.6971 22.2961C84.1979 22.2779 83.7408 22.1794 83.326 22.0008C82.9112 21.8258 82.5826 21.5542 82.3403 21.1859C82.0907 20.8141 81.9604 20.3255 81.9493 19.7203C81.964 19.1589 82.109 18.7049 82.3844 18.3586C82.6597 18.0049 83.0121 17.7516 83.4416 17.5984C83.8675 17.4417 84.3135 17.376 84.7797 17.4016C85.2533 17.4234 85.6957 17.5201 86.1068 17.6914V17.2539C86.0371 16.9258 85.8829 16.6706 85.6443 16.4883C85.413 16.3096 85.1377 16.2057 84.8183 16.1766C84.5026 16.1474 84.185 16.182 83.8656 16.2805C83.5536 16.3898 83.2838 16.5594 83.0562 16.7891L82.1641 15.9797C82.5569 15.5531 82.9772 15.2542 83.4251 15.0828C83.8656 14.9115 84.319 14.8312 84.7852 14.8422C85.2698 14.8422 85.725 14.9242 86.1509 15.0883C86.5804 15.2596 86.9347 15.524 87.2137 15.8812C87.4853 16.2276 87.6248 16.6706 87.6322 17.2102ZM86.1068 19.0039C85.9049 18.9055 85.6608 18.8344 85.3745 18.7906C85.0881 18.7469 84.8036 18.7414 84.5209 18.7742C84.2346 18.8034 83.9923 18.8945 83.7941 19.0477C83.5995 19.1971 83.4875 19.4214 83.4582 19.7203C83.4471 20.0813 83.5224 20.3583 83.6839 20.5516C83.8528 20.7484 84.0731 20.8779 84.3447 20.9398C84.62 21.0055 84.9137 21.0273 85.2258 21.0055C85.5341 20.9763 85.8278 20.9234 86.1068 20.8469V19.0039Z" fill="white"/>
<path fill-rule="evenodd" clip-rule="evenodd" d="M69.1905 17.3031V19.8133C69.1795 20.3711 69.0364 20.8323 68.761 21.1969C68.493 21.5651 68.1425 21.8404 67.7093 22.0227C67.2798 22.2049 66.83 22.2979 66.3602 22.3016C66.25 22.3016 66.1417 22.2979 66.0353 22.2906C65.6682 22.2505 65.3157 22.1612 64.978 22.0227C64.7651 21.9315 64.5705 21.8185 64.3943 21.6836C64.2181 21.5451 64.0602 21.3828 63.9207 21.1969C63.6454 20.8323 63.5022 20.3711 63.4912 19.8133V17.3031C63.5022 16.7526 63.6454 16.2951 63.9207 15.9305C64.0309 15.781 64.1557 15.6497 64.2952 15.5367C64.4971 15.3544 64.7247 15.2086 64.978 15.0992C65.3157 14.9607 65.6682 14.875 66.0353 14.8422C66.1417 14.8276 66.25 14.8203 66.3602 14.8203C66.83 14.824 67.2798 14.9169 67.7093 15.0992C68.1425 15.2888 68.493 15.5659 68.761 15.9305C68.9042 16.1164 69.0107 16.3224 69.0804 16.5484C69.1502 16.7781 69.1869 17.0297 69.1905 17.3031ZM67.6542 17.3031C67.6505 17.0771 67.5826 16.8893 67.4505 16.7398C67.322 16.594 67.1586 16.4865 66.9604 16.4172C66.7658 16.3406 66.5657 16.3023 66.3602 16.3023C66.25 16.3023 66.1417 16.3115 66.0353 16.3297C65.9288 16.3479 65.826 16.3771 65.7269 16.4172C65.525 16.4865 65.358 16.594 65.2258 16.7398C65.0973 16.8893 65.0312 17.0771 65.0276 17.3031V19.8133C65.0312 20.043 65.0973 20.2362 65.2258 20.393C65.358 20.5534 65.525 20.6773 65.7269 20.7648C65.826 20.8013 65.9288 20.8305 66.0353 20.8523C66.1417 20.8706 66.25 20.8797 66.3602 20.8797C66.5657 20.8797 66.7658 20.8414 66.9604 20.7648C67.1586 20.6737 67.322 20.5497 67.4505 20.393C67.5826 20.2362 67.6505 20.043 67.6542 19.8133V17.3031Z" fill="white"/>
<path fill-rule="evenodd" clip-rule="evenodd" d="M46.1068 17.2102V21.8148C45.67 21.9789 45.1964 22.1065 44.6861 22.1977C44.1758 22.2852 43.6692 22.318 43.1663 22.2961C42.7441 22.2815 42.3513 22.2086 41.9879 22.0773C41.9218 22.0555 41.8594 22.0299 41.8007 22.0008C41.5584 21.9023 41.3473 21.7693 41.1674 21.6016C41.072 21.5141 40.9857 21.4193 40.9086 21.3172C40.7948 21.1604 40.7012 20.9909 40.6278 20.8086V22.1211H33.5848L33.1498 21.0656L38.6289 13.8852H33.4416V12.3102H40.3359L40.8315 13.3492L35.3304 20.5734H40.5452C40.4717 20.3219 40.4314 20.0375 40.424 19.7203C40.4387 19.1589 40.5837 18.7049 40.859 18.3586C41.1344 18.0049 41.4849 17.7516 41.9108 17.5984C41.9365 17.5911 41.9622 17.582 41.9879 17.5711C42.3954 17.4326 42.8175 17.376 43.2544 17.4016C43.728 17.4234 44.1703 17.5201 44.5815 17.6914V17.2539C44.5117 16.9258 44.3576 16.6724 44.1189 16.4938C43.8877 16.3115 43.6123 16.2057 43.293 16.1766C42.9772 16.1474 42.6597 16.182 42.3403 16.2805C42.2192 16.3242 42.1017 16.3789 41.9879 16.4445C41.8227 16.5357 41.6703 16.6505 41.5308 16.7891L40.6333 15.9797C41.0297 15.5531 41.4519 15.2542 41.8998 15.0828C41.9255 15.0682 41.9548 15.0573 41.9879 15.05C42.4027 14.9005 42.8267 14.8312 43.2599 14.8422C43.7445 14.8422 44.1979 14.9242 44.62 15.0883C45.0532 15.2596 45.4093 15.524 45.6883 15.8812C45.96 16.2276 46.0995 16.6706 46.1068 17.2102ZM44.5815 19.0039C44.3796 18.9055 44.1355 18.8362 43.8491 18.7961C43.5628 18.7487 43.2783 18.7414 42.9956 18.7742C42.7056 18.807 42.4633 18.8982 42.2687 19.0477C42.1366 19.1461 42.043 19.281 41.9879 19.4523C41.9622 19.5289 41.9438 19.6182 41.9328 19.7203C41.9255 19.9172 41.9438 20.0904 41.9879 20.2398C42.0246 20.3602 42.0815 20.4659 42.1586 20.557C42.3238 20.7503 42.5441 20.8797 42.8194 20.9453C43.0947 21.0073 43.3884 21.0273 43.7004 21.0055C44.0088 20.9763 44.3025 20.9234 44.5815 20.8469V19.0039Z" fill="white"/>
</g>
<defs>
<clipPath id="clip0_3866_16890">
<rect width="100" height="35" fill="white"/>
</clipPath>
</defs>
</svg>
