<svg width="24" height="24" viewBox="0 0 24 24" fill="none" xmlns="http://www.w3.org/2000/svg">
<path d="M18.7101 19.5C17.8801 20.74 17.0001 21.95 15.6601 21.97C14.3201 22 13.8901 21.18 12.3701 21.18C10.8401 21.18 10.3701 21.95 9.10009 22C7.79009 22.05 6.80009 20.68 5.96009 19.47C4.25009 17 2.94009 12.45 4.70009 9.39C5.57009 7.87 7.13009 6.91 8.82009 6.88C10.1001 6.86 11.3201 7.75 12.1101 7.75C12.8901 7.75 14.3701 6.68 15.9201 6.84C16.5701 6.87 18.3901 7.1 19.5601 8.82C19.4701 8.88 17.3901 10.1 17.4101 12.63C17.4401 15.65 20.0601 16.66 20.0901 16.67C20.0601 16.74 19.6701 18.11 18.7101 19.5ZM13.0001 3.5C13.7301 2.67 14.9401 2.04 15.9401 2C16.0701 3.17 15.6001 4.35 14.9001 5.19C14.2101 6.04 13.0701 6.7 11.9501 6.61C11.8001 5.46 12.3601 4.26 13.0001 3.5Z" fill="black"/>
</svg>
