<svg width="25" height="24" viewBox="0 0 25 24" fill="none" xmlns="http://www.w3.org/2000/svg">
<path d="M22.3063 11.1H13.1363V13.83H19.6463C19.3163 17.64 16.1463 19.27 13.1463 19.27C9.31633 19.27 5.95633 16.25 5.95633 12C5.95633 7.9 9.15633 4.73 13.1563 4.73C16.2463 4.73 18.0563 6.7 18.0563 6.7L19.9563 4.72C19.9563 4.72 17.5163 2 13.0563 2C7.37633 2 2.98633 6.8 2.98633 12C2.98633 17.05 7.11633 22 13.2063 22C18.5563 22 22.4563 18.33 22.4563 12.91C22.4563 11.76 22.3063 11.1 22.3063 11.1Z" fill="black"/>
</svg>
